<svg width="20" height="21" viewBox="0 0 20 21" fill="none" xmlns="http://www.w3.org/2000/svg">
<path d="M14.0652 16.2999L14.8918 17.733C14.38 18.0825 13.7688 18.2951 13.1034 18.2951H3.21404C1.442 18.2951 0 16.8521 0 15.081V3.21404C0.000158601 1.44184 1.442 0 3.21404 0H13.1034C14.8755 0 16.3175 1.44184 16.3175 3.21404V3.34965C15.2996 2.78852 14.1445 2.47227 12.9471 2.47227C11.7301 2.47227 10.5312 2.79423 9.47512 3.40373C6.15038 5.32423 5.00702 9.59122 6.92546 12.9158C8.1654 15.0636 10.4808 16.3974 12.9661 16.3974C13.3371 16.3974 13.7021 16.3587 14.0652 16.2999ZM18.1311 6.4468C19.7786 9.29955 18.7974 12.9602 15.9446 14.6079C13.0919 16.2555 9.4296 15.2742 7.78206 12.4214C6.13547 9.5687 7.11626 5.90899 9.96948 4.26144C12.8222 2.61469 16.4834 3.59357 18.1311 6.4468ZM9.3032 7.07645C9.3032 7.14988 9.33841 7.18762 9.41184 7.18762C9.48575 7.18762 9.5235 7.15099 9.5235 7.07645V6.12421C9.5235 6.04982 9.48575 6.01366 9.41184 6.01366C9.33857 6.01366 9.3032 6.04982 9.3032 6.12421V7.07645ZM16.3896 7.07645C16.3896 7.14988 16.4255 7.18762 16.4988 7.18762C16.5712 7.18762 16.6088 7.15099 16.6088 7.07645V6.12421C16.6088 6.04982 16.5712 6.01366 16.4988 6.01366C16.4253 6.01366 16.3896 6.04982 16.3896 6.12421V7.07645ZM16.1321 7.03886V6.17258C16.1321 6.04998 16.1706 5.95736 16.2402 5.89202C16.2788 5.85823 16.3329 5.85728 16.3773 5.84031C14.8166 4.35882 12.4197 3.98801 10.4642 5.11741C10.114 5.32026 9.80644 5.56942 9.5254 5.83746C9.57504 5.85332 9.62817 5.85617 9.66973 5.89297C9.74316 5.95815 9.78186 6.05141 9.78186 6.17353V7.04028C9.78186 7.15273 9.74316 7.24345 9.66973 7.30816C9.59677 7.37335 9.51176 7.40665 9.41279 7.40665C9.31383 7.40665 9.22882 7.37335 9.15443 7.30816C9.08449 7.24345 9.04579 7.15368 9.04579 7.04028V6.3564C7.82568 7.91227 7.59095 10.1132 8.6393 11.9288C8.82423 12.2475 9.04579 12.5352 9.28544 12.7978V11.4633H9.54237V13.0354C11.1025 14.5112 13.4957 14.8801 15.4514 13.7521C15.7962 13.5542 16.0956 13.3126 16.3755 13.0509V11.4645H16.6304V12.7759C18.0472 11.2132 18.385 8.86562 17.2754 6.94417C17.1576 6.73847 17.0109 6.56036 16.8697 6.37829V7.04124C16.8697 7.15368 16.8312 7.24456 16.7597 7.30911C16.6853 7.3743 16.5993 7.4076 16.5029 7.4076C16.4023 7.4076 16.3164 7.3743 16.2431 7.30911C16.1706 7.24345 16.1321 7.15273 16.1321 7.03886ZM17.4472 14.2409L14.8783 15.7245L16.8562 19.1509L19.4251 17.6675L17.4472 14.2409ZM19.6908 18.1319L17.1208 19.6154C17.5303 20.3271 18.4381 20.5677 19.1469 20.1581C19.8578 19.7494 20.1012 18.8416 19.6908 18.1319ZM11.9038 5.794H11.647V7.40586H11.9038V5.794ZM12.0313 8.727C12.1058 8.79266 12.1414 8.88529 12.1414 9.00709V9.87432C12.1414 9.98788 12.1057 10.0786 12.0313 10.1424C11.958 10.208 11.8721 10.2408 11.7755 10.2408C11.6779 10.2408 11.5891 10.208 11.5176 10.1424C11.4453 10.0786 11.4094 9.98772 11.4094 9.87432V9.00709C11.4094 8.88529 11.4453 8.79266 11.5176 8.727C11.588 8.66182 11.6779 8.62851 11.7755 8.62851C11.8721 8.62851 11.958 8.66182 12.0313 8.727ZM11.8865 8.95872C11.8865 8.88529 11.8499 8.84865 11.7774 8.84865C11.7039 8.84865 11.6683 8.88529 11.6683 8.95872V9.91254C11.6683 9.98598 11.7041 10.0225 11.7774 10.0225C11.8497 10.0225 11.8865 9.98598 11.8865 9.91254V8.95872ZM12.0313 11.562C12.1058 11.6256 12.1414 11.7203 12.1414 11.8421V12.7093C12.1414 12.8213 12.1057 12.912 12.0313 12.9769C11.958 13.0416 11.8721 13.0763 11.7755 13.0763C11.6779 13.0763 11.5891 13.0435 11.5176 12.9769C11.4453 12.9141 11.4094 12.8222 11.4094 12.7093V11.8421C11.4094 11.7203 11.4453 11.6257 11.5176 11.562C11.588 11.4973 11.6779 11.4635 11.7755 11.4635C11.8721 11.4635 11.958 11.4973 12.0313 11.562ZM11.8865 11.7937C11.8865 11.7203 11.8499 11.6836 11.7774 11.6836C11.7039 11.6836 11.6683 11.7203 11.6683 11.7937V12.7459C11.6683 12.8194 11.7041 12.856 11.7774 12.856C11.8497 12.856 11.8865 12.8194 11.8865 12.7459V11.7937ZM9.67052 8.727C9.74205 8.79266 9.78059 8.88529 9.78059 9.00709V9.87432C9.78059 9.98788 9.74205 10.0786 9.67052 10.1424C9.59661 10.208 9.51176 10.2408 9.41374 10.2408C9.31383 10.2408 9.22866 10.208 9.15443 10.1424C9.08338 10.0786 9.04674 9.98772 9.04674 9.87432V9.00709C9.04674 8.88529 9.08338 8.79266 9.15443 8.727C9.22882 8.66182 9.31383 8.62851 9.41374 8.62851C9.51081 8.62851 9.59582 8.66182 9.67052 8.727ZM9.52524 8.95872C9.52524 8.88529 9.48813 8.84865 9.4147 8.84865C9.34126 8.84865 9.3051 8.88529 9.3051 8.95872V9.91254C9.3051 9.98598 9.34142 10.0225 9.4147 10.0225C9.48797 10.0225 9.52524 9.98598 9.52524 9.91254V8.95872ZM14.3954 5.89202C14.4679 5.9572 14.5055 6.04998 14.5055 6.17258V7.03886C14.5055 7.15178 14.4679 7.24266 14.3954 7.30737C14.3201 7.37255 14.235 7.40586 14.1377 7.40586C14.0401 7.40586 13.9532 7.37255 13.8807 7.30737C13.8083 7.24266 13.7716 7.15273 13.7716 7.03886V6.17258C13.7716 6.04998 13.8083 5.95736 13.8807 5.89202C13.9532 5.82667 14.0401 5.794 14.1377 5.794C14.2352 5.794 14.3202 5.82778 14.3954 5.89202ZM14.2496 6.12421C14.2496 6.04982 14.2111 6.01366 14.1377 6.01366C14.0652 6.01366 14.0286 6.04982 14.0286 6.12421V7.07645C14.0286 7.14988 14.0652 7.18762 14.1377 7.18762C14.2111 7.18762 14.2496 7.15099 14.2496 7.07645V6.12421ZM14.3954 8.727C14.4679 8.79266 14.5055 8.88529 14.5055 9.00709V9.87432C14.5055 9.98788 14.4679 10.0786 14.3954 10.1424C14.3201 10.208 14.235 10.2408 14.1377 10.2408C14.0401 10.2408 13.9532 10.208 13.8807 10.1424C13.8083 10.0786 13.7716 9.98772 13.7716 9.87432V9.00709C13.7716 8.88529 13.8083 8.79266 13.8807 8.727C13.9532 8.66182 14.0401 8.62851 14.1377 8.62851C14.2352 8.62851 14.3202 8.66182 14.3954 8.727ZM14.2496 8.95872C14.2496 8.88529 14.2111 8.84865 14.1377 8.84865C14.0652 8.84865 14.0286 8.88529 14.0286 8.95872V9.91254C14.0286 9.98598 14.0652 10.0225 14.1377 10.0225C14.2111 10.0225 14.2496 9.98598 14.2496 9.91254V8.95872ZM14.0092 13.0762H14.2661V11.4635H14.0092V13.0762ZM16.1321 9.00709C16.1321 8.88529 16.1706 8.79266 16.2402 8.727C16.3137 8.66182 16.3996 8.62851 16.4991 8.62851C16.5966 8.62851 16.6826 8.66182 16.756 8.727C16.8293 8.79266 16.8659 8.88529 16.8659 9.00709V9.87432C16.8659 9.98788 16.8293 10.0786 16.756 10.1424C16.6826 10.208 16.5966 10.2408 16.4991 10.2408C16.3996 10.2408 16.3137 10.208 16.2402 10.1424C16.1708 10.0786 16.1321 9.98772 16.1321 9.87432V9.00709ZM16.3896 9.91254C16.3896 9.98598 16.4255 10.0225 16.4988 10.0225C16.5712 10.0225 16.6088 9.98598 16.6088 9.91254V8.95872C16.6088 8.88529 16.5712 8.84865 16.4988 8.84865C16.4253 8.84865 16.3896 8.88529 16.3896 8.95872V9.91254Z" fill="#5C6A9B"/>
</svg>
