<svg width="16" height="16" viewBox="0 0 16 16" fill="none" xmlns="http://www.w3.org/2000/svg">
<path d="M8.87568 8.03394L11.8527 5.05919C11.9531 4.9421 12.0055 4.79148 11.9995 4.63743C11.9936 4.48338 11.9297 4.33725 11.8206 4.22824C11.7115 4.11923 11.5653 4.05537 11.4111 4.04942C11.2569 4.04347 11.1062 4.09587 10.989 4.19615L8.01197 7.1403L5.01657 4.14718C4.89938 4.0469 4.74865 3.99451 4.59448 4.00046C4.44032 4.00641 4.29407 4.07027 4.18498 4.17928C4.07589 4.28829 4.01198 4.43442 4.00602 4.58846C4.00007 4.74251 4.05251 4.89313 4.15286 5.01023L7.14214 8.03394L4.21412 10.923C4.14999 10.9779 4.09791 11.0454 4.06114 11.1213C4.02438 11.1973 4.00371 11.28 4.00046 11.3643C3.9972 11.4486 4.01141 11.5326 4.04221 11.6112C4.07301 11.6897 4.11972 11.7611 4.17941 11.8207C4.23911 11.8804 4.3105 11.9271 4.38911 11.9578C4.46772 11.9886 4.55184 12.0028 4.6362 11.9995C4.72056 11.9963 4.80334 11.9756 4.87933 11.9389C4.95533 11.9022 5.02291 11.8501 5.07782 11.786L7.99972 8.86639L10.9032 11.7677C11.0204 11.868 11.1712 11.9204 11.3253 11.9144C11.4795 11.9085 11.6257 11.8446 11.7348 11.7356C11.8439 11.6266 11.9078 11.4805 11.9138 11.3264C11.9197 11.1724 11.8673 11.0217 11.7669 10.9046L8.87568 8.03394Z" fill="#658AFF"/>
<path d="M8 16C6.41775 16 4.87103 15.5308 3.55544 14.6518C2.23985 13.7727 1.21447 12.5233 0.608967 11.0615C0.00346625 9.59966 -0.15496 7.99113 0.153721 6.43928C0.462403 4.88743 1.22433 3.46197 2.34315 2.34315C3.46197 1.22433 4.88743 0.462403 6.43928 0.153721C7.99113 -0.15496 9.59966 0.00346625 11.0615 0.608967C12.5233 1.21447 13.7727 2.23985 14.6518 3.55544C15.5308 4.87103 16 6.41775 16 8C16 10.1217 15.1571 12.1566 13.6569 13.6569C12.1566 15.1571 10.1217 16 8 16ZM8 1C6.61553 1 5.26215 1.41055 4.11101 2.17972C2.95987 2.94889 2.06266 4.04214 1.53285 5.32122C1.00303 6.6003 0.86441 8.00777 1.13451 9.36563C1.4046 10.7235 2.07129 11.9708 3.05026 12.9497C4.02922 13.9287 5.2765 14.5954 6.63437 14.8655C7.99224 15.1356 9.3997 14.997 10.6788 14.4672C11.9579 13.9373 13.0511 13.0401 13.8203 11.889C14.5895 10.7378 15 9.38447 15 8C15 6.14349 14.2625 4.36301 12.9497 3.05026C11.637 1.7375 9.85652 1 8 1Z" fill="#658AFF"/>
</svg>
