<svg width="16" height="22" viewBox="0 0 16 22" fill="none" xmlns="http://www.w3.org/2000/svg">
<path d="M15.225 16.24H14.21V0.338322C14.21 0.151485 14.0585 0 13.8717 0H0.338322C0.151485 0 0 0.151485 0 0.338322V20.6383C0 21.198 0.455339 21.6533 1.01497 21.6533H14.5483C15.1079 21.6533 15.5633 21.198 15.5633 20.6383V16.5783C15.5633 16.3915 15.4118 16.24 15.225 16.24ZM1.01497 20.9767C0.828395 20.9767 0.676645 20.8249 0.676645 20.6383V0.676689H13.5333V20.6383C13.5333 20.7569 13.5538 20.8708 13.5913 20.9767H1.01497ZM14.8867 20.6383C14.8867 20.8249 14.7349 20.9767 14.5484 20.9767C14.3618 20.9767 14.21 20.8249 14.21 20.6383V16.9167H14.8867V20.6383Z" fill="white"/>
<path d="M11.5034 3.72168H5.75165C5.56481 3.72168 5.41333 3.87316 5.41333 4.06C5.41333 4.24684 5.56481 4.39832 5.75165 4.39832H11.5033C11.6901 4.39832 11.8416 4.24684 11.8416 4.06C11.8417 3.87316 11.6902 3.72168 11.5034 3.72168Z" fill="white"/>
<path d="M11.5034 7.10498H5.75165C5.56481 7.10498 5.41333 7.25647 5.41333 7.4433C5.41333 7.63014 5.56481 7.78163 5.75165 7.78163H11.5033C11.6901 7.78163 11.8416 7.63014 11.8416 7.4433C11.8416 7.25647 11.6902 7.10498 11.5034 7.10498Z" fill="white"/>
<path d="M4.49739 2.46749L3.04489 3.9199L2.60754 3.4825C2.47541 3.35042 2.26117 3.35033 2.12904 3.4825C1.99687 3.61463 1.99687 3.82882 2.129 3.961L2.80564 4.63764C2.8691 4.7011 2.95518 4.73676 3.04489 4.73676C3.1346 4.73676 3.22068 4.7011 3.28409 4.63764L4.9758 2.94598C5.10797 2.81385 5.10797 2.59962 4.97584 2.46749C4.84371 2.3354 4.62943 2.33536 4.49739 2.46749Z" fill="white"/>
<path d="M4.49739 5.8508L3.04489 7.3032L2.60754 6.86576C2.47541 6.73368 2.26117 6.73359 2.12904 6.86576C1.99687 6.99789 1.99687 7.21208 2.129 7.34426L2.80564 8.0209C2.8691 8.08436 2.95518 8.12002 3.04489 8.12002C3.1346 8.12002 3.22068 8.08436 3.28409 8.0209L4.9758 6.32925C5.10797 6.19712 5.10797 5.98288 4.97584 5.85075C4.84371 5.71871 4.62943 5.71867 4.49739 5.8508Z" fill="white"/>
<path d="M11.5034 10.4883H5.75165C5.56481 10.4883 5.41333 10.6398 5.41333 10.8266C5.41333 11.0134 5.56481 11.1649 5.75165 11.1649H11.5033C11.6901 11.1649 11.8416 11.0134 11.8416 10.8266C11.8416 10.6398 11.6902 10.4883 11.5034 10.4883Z" fill="white"/>
<path d="M11.5034 13.8716H5.75165C5.56481 13.8716 5.41333 14.0231 5.41333 14.2099C5.41333 14.3967 5.56481 14.5482 5.75165 14.5482H11.5033C11.6901 14.5482 11.8416 14.3967 11.8416 14.2099C11.8417 14.0231 11.6902 13.8716 11.5034 13.8716Z" fill="white"/>
<path d="M4.49739 9.23408L3.04489 10.6865L2.60754 10.2491C2.47541 10.117 2.26117 10.1169 2.12904 10.2491C1.99687 10.3812 1.99687 10.5954 2.129 10.7276L2.80564 11.4043C2.8691 11.4677 2.95518 11.5034 3.04489 11.5034C3.1346 11.5034 3.22068 11.4677 3.28409 11.4043L4.9758 9.71262C5.10797 9.58049 5.10797 9.36626 4.97584 9.23413C4.84371 9.102 4.62943 9.10196 4.49739 9.23408Z" fill="white"/>
<path d="M4.49739 12.6174L3.04489 14.0698L2.60754 13.6324C2.47541 13.5004 2.26117 13.5003 2.12904 13.6324C1.99687 13.7646 1.99687 13.9788 2.129 14.1109L2.80564 14.7875C2.8691 14.851 2.95518 14.8867 3.04489 14.8867C3.1346 14.8867 3.22068 14.851 3.28409 14.7875L4.9758 13.0959C5.10797 12.9637 5.10797 12.7495 4.97584 12.6174C4.84371 12.4853 4.62943 12.4853 4.49739 12.6174Z" fill="white"/>
<path d="M11.5034 17.2551H5.75165C5.56481 17.2551 5.41333 17.4066 5.41333 17.5934C5.41333 17.7803 5.56481 17.9318 5.75165 17.9318H11.5033C11.6901 17.9318 11.8416 17.7803 11.8416 17.5934C11.8417 17.4066 11.6902 17.2551 11.5034 17.2551Z" fill="white"/>
<path d="M4.49739 16.0007L3.04489 17.4531L2.60754 17.0157C2.47541 16.8836 2.26117 16.8835 2.12904 17.0157C1.99687 17.1478 1.99687 17.362 2.129 17.4942L2.80564 18.1708C2.8691 18.2343 2.95518 18.2699 3.04489 18.2699C3.1346 18.2699 3.22068 18.2343 3.28409 18.1708L4.9758 16.4791C5.10797 16.347 5.10797 16.1328 4.97584 16.0007C4.84371 15.8686 4.62943 15.8686 4.49739 16.0007Z" fill="white"/>
</svg>
