<svg width="16" height="14" viewBox="0 0 16 14" fill="none" xmlns="http://www.w3.org/2000/svg">
<path d="M6 7.25C6 7.388 5.888 7.5 5.75 7.5H3.25C3.112 7.5 3 7.388 3 7.25C3 7.112 3.112 7 3.25 7H5.75C5.888 7 6 7.112 6 7.25ZM5.75 6H3.25C3.112 6 3 6.112 3 6.25C3 6.388 3.112 6.5 3.25 6.5H5.75C5.888 6.5 6 6.388 6 6.25C6 6.112 5.888 6 5.75 6ZM16 2.5V11.5C16 12.3285 15.3285 13 14.5 13H9.5C9.5 13.276 9.276 13.5 9 13.5H7C6.724 13.5 6.5 13.276 6.5 13H1.5C0.6715 13 0 12.3285 0 11.5V2.5C0 1.6715 0.6715 1 1.5 1H10C10 0.724 10.224 0.5 10.5 0.5H12.5C12.776 0.5 13 0.724 13 1H14.5C15.3285 1 16 1.6715 16 2.5ZM10.5 7.293L11.1465 6.6465L11.5 6.293L11.8535 6.6465L12.5 7.293V1H10.5V7.293ZM8.25 11.816L8.4595 11.711C8.736 11.573 9.045 11.5 9.354 11.5H14.5V1.5H13V7.293C13 7.5945 12.7535 7.794 12.4965 7.794C12.3735 7.794 12.2485 7.7485 12.1465 7.6465L11.5 7L10.8535 7.6465C10.7515 7.7485 10.6265 7.794 10.5035 7.794C10.2465 7.794 10 7.5945 10 7.293V1.5H8.25V11.816ZM1.5 11.5H6.646C6.955 11.5 7.264 11.573 7.5405 11.711L7.75 11.816V1.5H1.5V11.5ZM15.5 2.5C15.5 2.1315 15.2975 1.8125 15 1.639V11.5C15 11.776 14.776 12 14.5 12H9.354C9.121 12 8.8915 12.054 8.683 12.1585L8.2235 12.3885C8.153 12.4235 8.0765 12.4415 8 12.4415C7.9235 12.4415 7.847 12.424 7.7765 12.3885L7.317 12.1585C7.1085 12.054 6.879 12 6.646 12H1.5C1.224 12 1 11.776 1 11.5V1.639C0.7025 1.8125 0.5 2.1315 0.5 2.5V11.5C0.5 12.0515 0.9485 12.5 1.5 12.5H7V13H9V12.5H14.5C15.0515 12.5 15.5 12.0515 15.5 11.5V2.5ZM5.75 5H3.25C3.112 5 3 5.112 3 5.25C3 5.388 3.112 5.5 3.25 5.5H5.75C5.888 5.5 6 5.388 6 5.25C6 5.112 5.888 5 5.75 5Z" fill="white"/>
</svg>
