<svg width="15" height="18" viewBox="0 0 15 18" fill="none" xmlns="http://www.w3.org/2000/svg">
<path d="M12.4876 10.8C13.5125 10.8 14.3494 11.6059 14.3978 12.6192L14.4 12.7119V13.05C14.4 14.74 13.5262 16.0051 12.1859 16.8211C10.8679 17.6235 9.09626 18 7.2 18C5.30375 18 3.5321 17.6235 2.21409 16.8211C0.914368 16.0298 0.0533829 14.8162 0.00239553 13.2025L0 13.05V12.712C0 11.6867 0.806827 10.8505 1.81981 10.8022L1.91245 10.8H12.4876ZM12.4876 11.925H1.91245C1.49911 11.925 1.16044 12.243 1.12761 12.6475L1.125 12.712V13.05C1.125 14.285 1.73709 15.2136 2.79909 15.8602C3.88336 16.5203 5.43047 16.875 7.2 16.875C8.96954 16.875 10.5166 16.5203 11.6009 15.8602C12.625 15.2367 13.2307 14.351 13.2727 13.1811L13.275 13.05V12.712C13.275 12.299 12.957 11.9604 12.5522 11.9276L12.4876 11.925ZM7.2 0C9.68526 0 11.7 2.01472 11.7 4.5C11.7 6.98526 9.68526 9 7.2 9C4.71474 9 2.7 6.98526 2.7 4.5C2.7 2.01472 4.71474 0 7.2 0ZM7.2 1.125C5.33606 1.125 3.825 2.63604 3.825 4.5C3.825 6.36394 5.33606 7.875 7.2 7.875C9.06395 7.875 10.575 6.36394 10.575 4.5C10.575 2.63604 9.06395 1.125 7.2 1.125Z" fill="white"/>
</svg>
