<svg width="17" height="13" viewBox="0 0 17 13" fill="none" xmlns="http://www.w3.org/2000/svg">
<path d="M14.4661 11.8359C14.4661 11.9811 14.3483 12.099 14.2031 12.099H0.789088C0.643873 12.099 0.52604 11.9811 0.52604 11.8359V4.20838H14.4661V7.62761H14.9922V2.36721C14.9922 1.93218 14.6382 1.57812 14.2031 1.57812H13.151V0.789088C13.151 0.35406 12.797 0 12.3619 0C11.9269 0 11.5728 0.354004 11.5728 0.789088V1.57818H3.41929V0.789088C3.41929 0.35406 3.06528 0 2.6302 0C2.19512 0 1.84111 0.354004 1.84111 0.789088V1.57818H0.789032C0.354004 1.57818 0 1.93218 0 2.36721V11.8359C0 12.271 0.354004 12.625 0.789088 12.625H14.2031C14.6382 12.625 14.9922 12.271 14.9922 11.8359V11.3099H14.4662V11.8359H14.4661ZM12.0989 0.789088C12.0989 0.644153 12.2168 0.52604 12.362 0.52604C12.5072 0.52604 12.625 0.644153 12.625 0.789088V1.84117C12.625 1.9861 12.5071 2.10422 12.3619 2.10422C12.2167 2.10422 12.0989 1.9861 12.0989 1.84117V0.789088H12.0989ZM2.36721 0.789088C2.36721 0.644153 2.48504 0.52604 2.63026 0.52604C2.77547 0.52604 2.8933 0.644153 2.8933 0.789088V1.84117C2.8933 1.9861 2.77547 2.10422 2.63026 2.10422C2.48504 2.10422 2.36721 1.9861 2.36721 1.84117V0.789088ZM0.789088 2.10422H1.88959C1.9985 2.40957 2.28781 2.63026 2.63026 2.63026C2.9727 2.63026 3.26201 2.40957 3.37092 2.10422H11.6216C11.7305 2.40957 12.0198 2.63026 12.3622 2.63026C12.7047 2.63026 12.994 2.40957 13.1029 2.10422H14.2031C14.3483 2.10422 14.4662 2.22233 14.4662 2.36726V3.68245H0.52604V2.36721C0.52604 2.22227 0.643873 2.10422 0.789088 2.10422Z" fill="white"/>
<path d="M14.0716 11.5729C12.8389 11.5729 11.8359 10.5701 11.8359 9.33725C11.8359 8.10443 12.8388 7.10156 14.0716 7.10156C15.3044 7.10156 16.3073 8.10443 16.3073 9.33725C16.3073 10.5701 15.3044 11.5729 14.0716 11.5729Z" fill="#F9BA48"/>
<path d="M13.034 9.24991L12.7421 9.68758L13.7297 10.3459L16.2479 7.26802L15.8407 6.93506L13.6245 9.64364L13.034 9.24991Z" fill="white"/>
<path d="M3.1563 4.99731H1.31519V6.57543H3.1563V4.99731ZM2.63026 6.04939H1.84123V5.52335H2.63031L2.63026 6.04939Z" fill="white"/>
<path d="M5.78655 4.99731H3.94543V6.57543H5.7866V4.99731H5.78655ZM5.26051 6.04939H4.47147V5.52335H5.26051V6.04939Z" fill="white"/>
<path d="M8.41673 4.99731H6.57556V6.57543H8.41673V4.99731ZM7.89069 6.04939H7.1016V5.52335H7.89069V6.04939Z" fill="white"/>
<path d="M11.0469 4.99731H9.20569V6.57543H11.0469V4.99731ZM10.5208 6.04939H9.73173V5.52335H10.5208V6.04939Z" fill="white"/>
<path d="M13.6771 4.99731H11.8359V6.57543H13.6771V4.99731ZM13.1511 6.04939H12.362V5.52335H13.1511V6.04939Z" fill="white"/>
<path d="M3.1563 7.3645H1.31519V8.94262H3.1563V7.3645ZM2.63026 8.41658H1.84123V7.89054H2.63031L2.63026 8.41658Z" fill="white"/>
<path d="M5.78655 7.3645H3.94543V8.94262H5.7866V7.3645H5.78655ZM5.26051 8.41658H4.47147V7.89054H5.26051V8.41658Z" fill="white"/>
<path d="M8.41673 7.3645H6.57556V8.94262H8.41673V7.3645ZM7.89069 8.41658H7.1016V7.89054H7.89069V8.41658Z" fill="white"/>
<path d="M11.0469 7.3645H9.20569V8.94262H11.0469V7.3645ZM10.5208 8.41658H9.73173V7.89054H10.5208V8.41658Z" fill="white"/>
<path d="M1.31519 11.3098H3.1563V9.73169H1.31519V11.3098ZM1.84123 10.2577H2.63031V10.7838H1.84123V10.2577Z" fill="white"/>
<path d="M3.94543 11.3098H5.7866V9.73169H3.94543V11.3098ZM4.47147 10.2577H5.26051V10.7838H4.47147V10.2577Z" fill="white"/>
<path d="M6.57562 11.3098H8.41673V9.73169H6.57556V11.3098H6.57562ZM7.10166 10.2577H7.89075V10.7838H7.10166V10.2577Z" fill="white"/>
<path d="M9.20581 11.3098H11.047V9.73169H9.20581V11.3098ZM9.73185 10.2577H10.5209V10.7838H9.73179V10.2577H9.73185Z" fill="white"/>
</svg>
