<svg width="12" height="15" viewBox="0 0 12 15" fill="none" xmlns="http://www.w3.org/2000/svg">
<path d="M11.1044 0H0.88309C0.396176 0 0 0.39614 0 0.88309V13.5094C0 13.9963 0.396141 14.3925 0.88309 14.3925H5.99375C6.14939 14.3925 6.2756 14.2663 6.2756 14.1106C6.2756 13.955 6.14942 13.8288 5.99375 13.8288H0.88309C0.706957 13.8288 0.56366 13.6855 0.56366 13.5093V0.88309C0.56366 0.706957 0.706957 0.56366 0.88309 0.56366H11.1044C11.2805 0.56366 11.4238 0.706957 11.4238 0.88309V10.2026C11.4238 10.3582 11.55 10.4844 11.7057 10.4844C11.8613 10.4844 11.9875 10.3582 11.9875 10.2026V0.88309C11.9875 0.39614 11.5913 0 11.1044 0Z" fill="white"/>
</svg>
