<svg width="15" height="15" viewBox="0 0 15 15" fill="none" xmlns="http://www.w3.org/2000/svg">
<path d="M11.0659 7.13764C13.2351 7.13764 14.9935 8.89602 14.9935 11.0652C14.9935 13.2343 13.2351 14.9927 11.0659 14.9927C8.89681 14.9927 7.13842 13.2343 7.13842 11.0652C7.13842 8.89602 8.89681 7.13764 11.0659 7.13764ZM7.15435 8.56533C6.94248 8.89617 6.77138 9.25564 6.64827 9.63669L1.60591 9.6369C1.31056 9.6369 1.07114 9.87634 1.07114 10.1717V10.5842C1.07114 10.9668 1.20761 11.3367 1.45602 11.6276C2.351 12.6757 3.75483 13.2082 5.71023 13.2082C6.13612 13.2082 6.53594 13.183 6.91006 13.1326C7.08515 13.486 7.30481 13.8134 7.56095 14.1083C6.99289 14.2227 6.37534 14.2794 5.71023 14.2794C3.46379 14.2794 1.75994 13.633 0.641457 12.3232C0.227454 11.8384 0 11.2218 0 10.5842V10.1717C0 9.28478 0.718994 8.56576 1.60591 8.56576L7.15435 8.56533ZM11.0659 8.56583L11.0017 8.57161C10.856 8.59803 10.7411 8.71293 10.7147 8.85868L10.7089 8.92288L10.7082 10.7081H8.92645L8.86225 10.7139C8.7165 10.7403 8.6016 10.8552 8.57518 11.001L8.5694 11.0652L8.57518 11.1294C8.6016 11.2751 8.7165 11.39 8.86225 11.4165L8.92645 11.4222H10.7082L10.7089 13.2074L10.7147 13.2716C10.7411 13.4174 10.856 13.5323 11.0017 13.5587L11.0659 13.5645L11.1301 13.5587C11.2759 13.5323 11.3908 13.4174 11.4172 13.2716L11.423 13.2074L11.4223 11.4222H13.211L13.2752 11.4165C13.421 11.39 13.5359 11.2751 13.5623 11.1294L13.5681 11.0652L13.5623 11.001C13.5359 10.8552 13.421 10.7403 13.2752 10.7139L13.211 10.7081H11.4223L11.423 8.92288L11.4172 8.85868C11.3908 8.71293 11.2759 8.59803 11.1301 8.57161L11.0659 8.56583ZM5.71023 0C7.68214 0 9.28071 1.59855 9.28071 3.57048C9.28071 5.54239 7.68214 7.14092 5.71023 7.14092C3.73831 7.14092 2.13976 5.54239 2.13976 3.57048C2.13976 1.59855 3.73831 0 5.71023 0ZM5.71023 1.07114C4.32989 1.07114 3.2109 2.19013 3.2109 3.57048C3.2109 4.95082 4.32989 6.06978 5.71023 6.06978C7.09058 6.06978 8.20957 4.95082 8.20957 3.57048C8.20957 2.19013 7.09058 1.07114 5.71023 1.07114Z" fill="white"/>
</svg>
