<svg width="15" height="15" viewBox="0 0 15 15" fill="none" xmlns="http://www.w3.org/2000/svg">
<path d="M14.886 4.39308L10.6069 0.11394C10.534 0.0409847 10.435 0 10.3318 0H2.64241C1.18538 0 0 1.18538 0 2.64241V12.3577C0 13.8147 1.18538 15.0001 2.64241 15.0001H12.3577C13.8147 15.0001 15.0001 13.8147 15.0001 12.3577V4.66817C15 4.56499 14.959 4.46603 14.886 4.39308ZM10.656 1.26359L13.7364 4.34392H10.656V1.26359ZM12.3576 14.2218H2.64241C1.61448 14.2218 0.77819 13.3855 0.77819 12.3576V2.64241C0.77819 1.61448 1.61448 0.77819 2.64241 0.77819H9.87782V4.73302C9.87782 4.94786 10.0521 5.12211 10.2669 5.12211H14.2217V12.3576C14.2218 13.3855 13.3855 14.2218 12.3576 14.2218Z" fill="white"/>
<path d="M6.733 3.3981C6.35253 3.01763 5.84671 2.80811 5.30866 2.80811C4.7706 2.80811 4.26478 3.01763 3.88431 3.3981C3.50384 3.77857 3.29431 4.2844 3.29431 4.82245C3.29431 5.3605 3.50384 5.86633 3.88431 6.2468L7.87487 10.2374C8.39087 10.7533 9.23021 10.7532 9.74609 10.2374C10.262 9.72142 10.262 8.88207 9.74609 8.36613L5.79496 4.41513C5.64302 4.26319 5.39659 4.26319 5.24471 4.41513C5.09277 4.56707 5.09277 4.81344 5.24471 4.96538L9.19578 8.91644C9.40823 9.12889 9.40823 9.47466 9.19578 9.68711C8.98333 9.89956 8.63762 9.89956 8.42511 9.68711L4.43455 5.69662C4.20103 5.4631 4.0725 5.15266 4.0725 4.82252C4.0725 4.4923 4.2011 4.18187 4.43455 3.94841C4.91658 3.46639 5.70073 3.46639 6.18276 3.94841L10.364 8.12963C11.1141 8.87974 11.1141 10.1003 10.364 10.8504C10.0006 11.2137 9.5175 11.4138 9.00363 11.4138C8.48977 11.4138 8.00664 11.2137 7.64329 10.8504L4.42852 7.63554C4.27658 7.4836 4.03016 7.4836 3.87828 7.63554C3.72634 7.78748 3.72634 8.03384 3.87828 8.18579L7.09305 11.4006C7.60341 11.9109 8.28192 12.192 9.00363 12.192C9.72534 12.192 10.4039 11.9109 10.9142 11.4006C11.4245 10.8902 11.7056 10.2117 11.7056 9.4899C11.7056 8.7682 11.4246 8.08962 10.9142 7.57932L6.733 3.3981Z" fill="white"/>
</svg>
