<svg width="12" height="19" viewBox="0 0 12 19" fill="none" xmlns="http://www.w3.org/2000/svg">
<path d="M10.9844 18.4062H10.6875V15.7574C10.6875 15.0917 10.485 14.4511 10.102 13.9048L7.03857 9.53514L10.1027 5.13052C10.4853 4.58048 10.6875 3.93563 10.6875 3.26562V0.59375H10.9844C11.1483 0.59375 11.2812 0.460824 11.2812 0.296875C11.2812 0.132926 11.1483 0 10.9844 0H0.296875C0.132926 0 0 0.132926 0 0.296875C0 0.460824 0.132926 0.59375 0.296875 0.59375H0.59375V3.26562C0.59375 3.93563 0.795996 4.58048 1.17859 5.13048L4.24268 9.53511L1.17922 13.9047C0.796218 14.4511 0.59375 15.0917 0.59375 15.7574V18.4062H0.296875C0.132926 18.4062 0 18.5392 0 18.7031C0 18.8671 0.132926 19 0.296875 19H10.9844C11.1483 19 11.2812 18.8671 11.2812 18.7031C11.2812 18.5392 11.1483 18.4062 10.9844 18.4062ZM1.1875 15.7574C1.1875 15.2143 1.35275 14.6915 1.66539 14.2456L4.84789 9.70622C4.91937 9.60424 4.91963 9.46849 4.84853 9.36626L1.66603 4.79141C1.35297 4.34143 1.1875 3.8138 1.1875 3.26562V0.59375H10.0938V3.26562C10.0938 3.8138 9.92828 4.34143 9.61522 4.79145L6.43272 9.36629C6.36159 9.46853 6.36185 9.60428 6.43336 9.70625L9.61586 14.2456C9.9285 14.6915 10.0938 15.2143 10.0938 15.7574V18.4062H1.1875V15.7574Z" fill="white"/>
<path d="M7.42203 17.2188H6.82825C6.6643 17.2188 6.53137 17.3517 6.53137 17.5156C6.53137 17.6796 6.6643 17.8125 6.82825 17.8125H7.42203C7.58598 17.8125 7.71891 17.6796 7.71891 17.5156C7.71891 17.3517 7.58602 17.2188 7.42203 17.2188Z" fill="white"/>
<path d="M5.64062 9.25189C5.74286 9.25189 5.83756 9.1993 5.8917 9.11343C5.95753 9.01442 7.17183 7.26538 7.9768 6.1069C8.03985 6.01617 8.04728 5.8979 7.9961 5.79997C7.94493 5.70204 7.84354 5.64062 7.73303 5.64062H3.54821C3.4377 5.64062 3.33635 5.702 3.28514 5.79994C3.23393 5.89787 3.24135 6.01613 3.30444 6.10687C4.10945 7.26535 5.32374 9.01439 5.38954 9.11339C5.44368 9.1993 5.53838 9.25189 5.64062 9.25189ZM7.16526 6.23438C6.31557 7.45746 5.87248 8.09641 5.64062 8.43177C5.40876 8.09641 4.96568 7.45746 4.11598 6.23438H7.16526Z" fill="white"/>
<path d="M7.73363 12.5952C7.67808 12.516 7.58735 12.4688 7.49056 12.4688H3.79069C3.6939 12.4688 3.60317 12.5159 3.54762 12.5952L2.15156 14.5865C1.90931 14.932 1.78125 15.3369 1.78125 15.7574V17.5156C1.78125 17.6796 1.91418 17.8125 2.07812 17.8125H5.64074C5.80469 17.8125 5.93761 17.6796 5.93761 17.5156C5.93761 17.3517 5.80469 17.2188 5.64074 17.2188H2.375V15.7574C2.375 15.4595 2.46584 15.1725 2.63773 14.9273L3.94513 13.0625H7.33615L8.64352 14.9273C8.81541 15.1725 8.90629 15.4595 8.90629 15.7574V17.2188H8.60941C8.44546 17.2188 8.31254 17.3517 8.31254 17.5156C8.31254 17.6796 8.44546 17.8125 8.60941 17.8125H9.20316C9.36711 17.8125 9.50004 17.6796 9.50004 17.5156V15.7574C9.50004 15.3369 9.37197 14.932 9.12972 14.5864L7.73363 12.5952Z" fill="white"/>
<path d="M8.38958 4.99373C8.44123 5.02966 8.50031 5.04691 8.55887 5.04691C8.65276 5.04691 8.74516 5.00249 8.80283 4.91955L9.12783 4.45235C9.37131 4.10237 9.5 3.69197 9.5 3.26562V2.96875C9.5 2.8048 9.36708 2.67188 9.20313 2.67188C9.03918 2.67188 8.90625 2.8048 8.90625 2.96875V3.26562C8.90625 3.57018 8.81433 3.86327 8.6404 4.11331L8.3154 4.58052C8.22177 4.71512 8.25498 4.90011 8.38958 4.99373Z" fill="white"/>
<path d="M9.20312 2.07812C9.36707 2.07812 9.5 1.9452 9.5 1.78125V1.48438C9.5 1.32043 9.36707 1.1875 9.20312 1.1875C9.03918 1.1875 8.90625 1.32043 8.90625 1.48438V1.78125C8.90625 1.9452 9.03918 2.07812 9.20312 2.07812Z" fill="white"/>
</svg>
