<svg width="15" height="18" viewBox="0 0 15 18" fill="none" xmlns="http://www.w3.org/2000/svg">
<path d="M3.88932 3.60771C3.73368 3.60771 3.60747 3.73388 3.60747 3.88956C3.60747 4.23145 3.32932 4.50961 2.98742 4.50961C2.64553 4.50961 2.36737 4.23145 2.36737 3.88956C2.36737 3.54766 2.64553 3.26951 2.98742 3.26951C3.14306 3.26951 3.26927 3.14333 3.26927 2.98766C3.26927 2.83199 3.14309 2.70581 2.98742 2.70581C2.33471 2.70581 1.80371 3.23685 1.80371 3.88952C1.80371 4.5422 2.33475 5.07323 2.98742 5.07323C3.6401 5.07323 4.17113 4.5422 4.17113 3.88952C4.17117 3.73388 4.04496 3.60771 3.88932 3.60771Z" fill="white"/>
<path d="M3.88932 6.91459C3.73368 6.91459 3.60747 7.04077 3.60747 7.19644C3.60747 7.53834 3.32932 7.81649 2.98742 7.81649C2.64553 7.81649 2.36737 7.53834 2.36737 7.19644C2.36737 6.85455 2.64553 6.57639 2.98742 6.57639C3.14306 6.57639 3.26927 6.45021 3.26927 6.29454C3.26927 6.13887 3.14309 6.0127 2.98742 6.0127C2.33471 6.0127 1.80371 6.54373 1.80371 7.19641C1.80371 7.84908 2.33475 8.38012 2.98742 8.38012C3.6401 8.38012 4.17113 7.84908 4.17113 7.19641C4.17117 7.0408 4.04496 6.91459 3.88932 6.91459Z" fill="white"/>
<path d="M7.19629 7.51562H5.09191C4.93627 7.51562 4.81006 7.6418 4.81006 7.79747C4.81006 7.95314 4.93623 8.07932 5.09191 8.07932H7.19629C7.35193 8.07932 7.47814 7.95314 7.47814 7.79747C7.47814 7.6418 7.35196 7.51562 7.19629 7.51562Z" fill="white"/>
<path d="M7.19629 6.31323H5.09191C4.93627 6.31323 4.81006 6.43941 4.81006 6.59508C4.81006 6.75075 4.93623 6.87693 5.09191 6.87693H7.19629C7.35193 6.87693 7.47814 6.75075 7.47814 6.59508C7.47814 6.43941 7.35196 6.31323 7.19629 6.31323Z" fill="white"/>
<path d="M6.59505 10.8225H5.09191C4.93627 10.8225 4.81006 10.9487 4.81006 11.1044C4.81006 11.26 4.93623 11.3862 5.09191 11.3862H6.59505C6.75068 11.3862 6.87689 11.26 6.87689 11.1044C6.87689 10.9487 6.75068 10.8225 6.59505 10.8225Z" fill="white"/>
<path d="M7.19629 9.62012H5.09191C4.93627 9.62012 4.81006 9.74629 4.81006 9.90196C4.81006 10.0576 4.93623 10.1838 5.09191 10.1838H7.19629C7.35193 10.1838 7.47814 10.0576 7.47814 9.90196C7.47814 9.74629 7.35196 9.62012 7.19629 9.62012Z" fill="white"/>
<path d="M9.90195 4.20874H5.09191C4.93627 4.20874 4.81006 4.33492 4.81006 4.49059C4.81006 4.64626 4.93623 4.77244 5.09191 4.77244H9.90191C10.0575 4.77244 10.1838 4.64626 10.1838 4.49059C10.1838 4.33492 10.0576 4.20874 9.90195 4.20874Z" fill="white"/>
<path d="M8.69943 3.00635H5.09191C4.93627 3.00635 4.81006 3.13252 4.81006 3.2882C4.81006 3.44387 4.93623 3.57004 5.09191 3.57004H8.69943C8.85507 3.57004 8.98128 3.44387 8.98128 3.2882C8.98128 3.13252 8.8551 3.00635 8.69943 3.00635Z" fill="white"/>
<path d="M3.88932 10.2215C3.73368 10.2215 3.60747 10.3477 3.60747 10.5033C3.60747 10.8452 3.32932 11.1234 2.98742 11.1234C2.64553 11.1234 2.36737 10.8452 2.36737 10.5033C2.36737 10.1614 2.64553 9.88328 2.98742 9.88328C3.14306 9.88328 3.26927 9.7571 3.26927 9.60143C3.26927 9.44576 3.14309 9.31958 2.98742 9.31958C2.33471 9.31958 1.80371 9.85062 1.80371 10.5033C1.80371 11.156 2.33475 11.687 2.98742 11.687C3.6401 11.687 4.17113 11.156 4.17113 10.5033C4.17117 10.3477 4.04496 10.2215 3.88932 10.2215Z" fill="white"/>
<path d="M11.1044 0H0.88309C0.396176 0 0 0.39614 0 0.88309V13.5094C0 13.9963 0.396141 14.3925 0.88309 14.3925H5.99375C6.14939 14.3925 6.2756 14.2663 6.2756 14.1106C6.2756 13.955 6.14942 13.8288 5.99375 13.8288H0.88309C0.706957 13.8288 0.56366 13.6855 0.56366 13.5093V0.88309C0.56366 0.706957 0.706957 0.56366 0.88309 0.56366H11.1044C11.2805 0.56366 11.4238 0.706957 11.4238 0.88309V10.2026C11.4238 10.3582 11.55 10.4844 11.7057 10.4844C11.8613 10.4844 11.9875 10.3582 11.9875 10.2026V0.88309C11.9875 0.39614 11.5913 0 11.1044 0Z" fill="white"/>
<path d="M13.7653 11.429C13.5034 11.4029 13.2416 11.4772 13.0343 11.6345C12.8693 11.3575 12.5878 11.161 12.2622 11.1284C12.0001 11.1023 11.7384 11.1766 11.5312 11.3339C11.3661 11.0569 11.0847 10.8604 10.759 10.8278C10.559 10.8078 10.3592 10.8463 10.1837 10.9357V7.34651C10.1837 7.0551 10.0597 6.77575 9.84349 6.5801C9.62745 6.38463 9.33633 6.28922 9.0447 6.3184C8.52443 6.3705 8.1169 6.84092 8.1169 7.3894V10.9876L7.2884 11.8161C6.84814 12.2564 6.67043 12.881 6.81306 13.4871L7.44204 16.1603C7.69688 17.2435 8.65204 18 9.76481 18H12.3069C13.6226 18 14.6931 16.9296 14.6931 15.6138V12.5001C14.6931 11.9516 14.2856 11.4811 13.7653 11.429ZM14.1294 15.6137C14.1294 16.6186 13.3118 17.4362 12.3069 17.4362H9.76484C8.91494 17.4362 8.18538 16.8584 7.99072 16.0311L7.36174 13.3579C7.26415 12.9433 7.38575 12.5158 7.68697 12.2146L8.1169 11.7847V12.7578C8.1169 12.9134 8.24307 13.0396 8.39874 13.0396C8.55441 13.0396 8.68059 12.9134 8.68059 12.7578V7.38936C8.68059 7.12692 8.8652 6.90284 9.10092 6.87928C9.23631 6.86567 9.36579 6.90793 9.46535 6.99807C9.56368 7.08705 9.62007 7.21407 9.62007 7.34654V12.3069C9.62007 12.4625 9.74625 12.5887 9.90192 12.5887C10.0576 12.5887 10.1838 12.4625 10.1838 12.3069V11.8559C10.1838 11.7235 10.2401 11.5964 10.3385 11.5075C10.4381 11.4173 10.5675 11.375 10.7029 11.3887C10.9386 11.4123 11.1232 11.6363 11.1232 11.8988V12.6074C11.1232 12.7631 11.2494 12.8893 11.4051 12.8893C11.5607 12.8893 11.6869 12.7631 11.6869 12.6074V12.1565C11.6869 12.024 11.7433 11.897 11.8417 11.808C11.9413 11.7179 12.0707 11.6756 12.2061 11.6892C12.4418 11.7128 12.6264 11.9369 12.6264 12.1993V12.908C12.6264 13.0636 12.7526 13.1899 12.9083 13.1899C13.0639 13.1899 13.1901 13.0637 13.1901 12.908V12.4571C13.1901 12.3246 13.2465 12.1976 13.3448 12.1086C13.4445 12.0185 13.5738 11.9762 13.7093 11.9898C13.945 12.0134 14.1296 12.2375 14.1296 12.4999V15.6137H14.1294Z" fill="white"/>
</svg>
