<svg width="13" height="17" viewBox="0 0 13 17" fill="none" xmlns="http://www.w3.org/2000/svg">
<path d="M12.807 3.31177L9.57592 0.0806674C9.5243 0.0290065 9.45424 0 9.38121 0H0.862851C0.387071 0 0 0.387071 0 0.862851V16.1371C0 16.6129 0.387071 17 0.862851 17H12.0248C12.5006 17 12.8877 16.6129 12.8877 16.1371V3.50648C12.8877 3.43345 12.8587 3.36339 12.807 3.31177ZM9.65659 0.940177L11.9475 3.2311H9.96868C9.79659 3.2311 9.65659 3.0911 9.65659 2.91901V0.940177ZM12.0248 16.4492H0.862851C0.690758 16.4492 0.550756 16.3092 0.550756 16.1371V0.862851C0.550756 0.690758 0.690758 0.550756 0.862851 0.550756H9.10583V2.91901C9.10583 3.39479 9.4929 3.78186 9.96868 3.78186H12.3369V16.1371C12.3369 16.3092 12.1969 16.4492 12.0248 16.4492Z" fill="white"/>
<path d="M2.03783 2.31321H4.09398C4.24607 2.31321 4.36936 2.18991 4.36936 2.03783C4.36936 1.88575 4.24607 1.76245 4.09398 1.76245H2.03783C1.88575 1.76245 1.76245 1.88575 1.76245 2.03783C1.76245 2.18991 1.88575 2.31321 2.03783 2.31321Z" fill="white"/>
<path d="M2.03783 3.78196H5.26893C5.42101 3.78196 5.54431 3.65866 5.54431 3.50658C5.54431 3.3545 5.42101 3.2312 5.26893 3.2312H2.03783C1.88575 3.2312 1.76245 3.3545 1.76245 3.50658C1.76245 3.65866 1.88575 3.78196 2.03783 3.78196Z" fill="white"/>
<path d="M4.40613 5.85643C4.40613 6.00851 4.52942 6.13181 4.68151 6.13181H8.20634C8.35843 6.13181 8.48172 6.00851 8.48172 5.85643C8.48172 5.70435 8.35843 5.58105 8.20634 5.58105H4.68151C4.52942 5.58105 4.40613 5.70435 4.40613 5.85643Z" fill="white"/>
<path d="M10.8499 7.0498H2.03783C1.88575 7.0498 1.76245 7.1731 1.76245 7.32518C1.76245 7.47726 1.88575 7.60056 2.03783 7.60056H10.8499C11.002 7.60056 11.1253 7.47726 11.1253 7.32518C11.1253 7.1731 11.002 7.0498 10.8499 7.0498Z" fill="white"/>
<path d="M7.32519 12.3369H5.26903C5.11695 12.3369 4.99365 12.4602 4.99365 12.6123C4.99365 12.7644 5.11695 12.8877 5.26903 12.8877H7.32519C7.47727 12.8877 7.60056 12.7644 7.60056 12.6123C7.60056 12.4602 7.47727 12.3369 7.32519 12.3369Z" fill="white"/>
<path d="M7.32519 13.8054H5.26903C5.11695 13.8054 4.99365 13.9287 4.99365 14.0808C4.99365 14.2329 5.11695 14.3562 5.26903 14.3562H7.32519C7.47727 14.3562 7.60056 14.2329 7.60056 14.0808C7.60056 13.9287 7.47727 13.8054 7.32519 13.8054Z" fill="white"/>
<path d="M10.8499 8.51831H2.03783C1.88575 8.51831 1.76245 8.64161 1.76245 8.79369C1.76245 8.94577 1.88575 9.06907 2.03783 9.06907H10.8499C11.002 9.06907 11.1253 8.94577 11.1253 8.79369C11.1253 8.64161 11.002 8.51831 10.8499 8.51831Z" fill="white"/>
<path d="M10.8499 9.98706H2.03783C1.88575 9.98706 1.76245 10.1104 1.76245 10.2624C1.76245 10.4145 1.88575 10.5378 2.03783 10.5378H10.8499C11.002 10.5378 11.1253 10.4145 11.1253 10.2624C11.1253 10.1104 11.002 9.98706 10.8499 9.98706Z" fill="white"/>
<path d="M9.67506 12.0432C8.87536 12.0432 8.22473 12.6938 8.22473 13.4935C8.22473 14.2932 8.87536 14.9439 9.67506 14.9439C10.4748 14.9439 11.1254 14.2932 11.1254 13.4935C11.1254 12.6938 10.4748 12.0432 9.67506 12.0432ZM9.67506 14.3931C9.17904 14.3931 8.77549 13.9895 8.77549 13.4935C8.77549 12.9975 9.17904 12.594 9.67506 12.594C10.1711 12.594 10.5746 12.9975 10.5746 13.4935C10.5746 13.9895 10.1711 14.3931 9.67506 14.3931Z" fill="white"/>
<path d="M9.675 12.998C9.40168 12.998 9.17932 13.2204 9.17932 13.4937C9.17932 13.767 9.40168 13.9894 9.675 13.9894C9.94832 13.9894 10.1707 13.767 10.1707 13.4937C10.1707 13.2204 9.94832 12.998 9.675 12.998Z" fill="white"/>
</svg>
