<svg width="15" height="20" viewBox="0 0 15 20" fill="none" xmlns="http://www.w3.org/2000/svg">
<path d="M14.9986 4.16357C14.9979 4.15662 14.9967 4.14985 14.9955 4.14308C14.9951 4.14083 14.9949 4.1385 14.9945 4.13624C14.9929 4.12816 14.9908 4.12026 14.9885 4.11248C14.9882 4.11154 14.988 4.11053 14.9877 4.10959C14.9853 4.10158 14.9824 4.09376 14.9793 4.08609C14.979 4.0853 14.9788 4.08447 14.9785 4.08368C14.9754 4.07635 14.972 4.06925 14.9683 4.06226C14.9677 4.06109 14.9673 4.05989 14.9667 4.05872C14.9632 4.05222 14.9593 4.04598 14.9553 4.03977C14.9543 4.0382 14.9535 4.03654 14.9524 4.035C14.9486 4.02921 14.9443 4.02372 14.94 4.01823C14.9386 4.01643 14.9374 4.01455 14.9359 4.01278C14.9306 4.00628 14.9249 4.00007 14.919 3.99406C14.9184 3.9935 14.918 3.99289 14.9174 3.99233L11.0076 0.0825564C11.007 0.0818797 11.0062 0.0813158 11.0055 0.0806391C10.9996 0.0748872 10.9936 0.0693233 10.9872 0.0640977C10.9852 0.062406 10.983 0.0609774 10.9809 0.0593609C10.9757 0.0553383 10.9705 0.0513158 10.9651 0.0476692C10.9632 0.046391 10.9611 0.0453383 10.9592 0.0440977C10.9533 0.0403759 10.9475 0.0366917 10.9414 0.0334211C10.94 0.0327068 10.9386 0.0321053 10.9372 0.0314286C10.9304 0.0279323 10.9235 0.0245489 10.9164 0.0215789C10.9155 0.021203 10.9145 0.0209398 10.9136 0.0205639C10.906 0.0175188 10.8983 0.0146617 10.8904 0.0122556C10.8894 0.0119549 10.8884 0.0117669 10.8874 0.0114662C10.8796 0.00921053 10.8718 0.00714286 10.8638 0.00552632C10.8614 0.00503759 10.8589 0.00484962 10.8565 0.00443609C10.8499 0.00327068 10.8432 0.00210526 10.8364 0.00142857C10.8271 0.000488722 10.8177 0 10.8083 0H1.48496C0.666165 0 0 0.666165 0 1.48496V17.7256C0 18.5444 0.666165 19.2105 1.48496 19.2105H13.515C14.3338 19.2105 15 18.5444 15 17.7256V4.19173C15 4.18229 14.9995 4.17289 14.9986 4.16357ZM11.0902 0.962632L14.0374 3.90977H12.0113C11.5034 3.90977 11.0902 3.49662 11.0902 2.98872V0.962632ZM13.515 18.6466H1.48496C0.977105 18.6466 0.56391 18.2335 0.56391 17.7256V1.48496C0.56391 0.977068 0.977105 0.56391 1.48496 0.56391H10.5263V2.98872C10.5263 3.80752 11.1925 4.47368 12.0113 4.47368H14.4361V17.7256C14.4361 18.2335 14.0229 18.6466 13.515 18.6466Z" fill="white"/>
<path d="M12.6128 9.32349H10.8082C10.6525 9.32349 10.5262 9.44969 10.5262 9.60544C10.5262 9.76119 10.6525 9.8874 10.8082 9.8874H12.6128C12.7685 9.8874 12.8947 9.76119 12.8947 9.60544C12.8947 9.44969 12.7685 9.32349 12.6128 9.32349Z" fill="white"/>
<path d="M2.38718 9.8874H9.60526C9.76098 9.8874 9.88722 9.76119 9.88722 9.60544C9.88722 9.44969 9.76098 9.32349 9.60526 9.32349H2.38718C2.23147 9.32349 2.10522 9.44969 2.10522 9.60544C2.10522 9.76119 2.23147 9.8874 2.38718 9.8874Z" fill="white"/>
<path d="M12.6128 5.71436H5.09397C4.93825 5.71436 4.81201 5.84056 4.81201 5.99631C4.81201 6.15206 4.93825 6.27827 5.09397 6.27827H12.6128C12.7685 6.27827 12.8947 6.15206 12.8947 5.99631C12.8947 5.84056 12.7685 5.71436 12.6128 5.71436Z" fill="white"/>
<path d="M2.38718 6.27827H3.89105C4.04677 6.27827 4.17301 6.15206 4.17301 5.99631C4.17301 5.84056 4.04677 5.71436 3.89105 5.71436H2.38718C2.23147 5.71436 2.10522 5.84056 2.10522 5.99631C2.10522 6.15206 2.23147 6.27827 2.38718 6.27827Z" fill="white"/>
<path d="M12.6128 12.9326H6.89853C6.74282 12.9326 6.61658 13.0588 6.61658 13.2146C6.61658 13.3703 6.74282 13.4965 6.89853 13.4965H12.6128C12.7685 13.4965 12.8948 13.3703 12.8948 13.2146C12.8948 13.0588 12.7685 12.9326 12.6128 12.9326Z" fill="white"/>
<path d="M5.69545 12.9326H2.38718C2.23147 12.9326 2.10522 13.0588 2.10522 13.2146C2.10522 13.3703 2.23147 13.4965 2.38718 13.4965H5.69545C5.85116 13.4965 5.97741 13.3703 5.97741 13.2146C5.97741 13.0588 5.85116 12.9326 5.69545 12.9326Z" fill="white"/>
<path d="M12.6127 7.51855H2.38718C2.23147 7.51855 2.10522 7.64476 2.10522 7.80051C2.10522 7.95626 2.23147 8.08246 2.38718 8.08246H12.6127C12.7685 8.08246 12.8947 7.95626 12.8947 7.80051C12.8947 7.64476 12.7685 7.51855 12.6127 7.51855Z" fill="white"/>
<path d="M12.6127 11.1282H2.38718C2.23147 11.1282 2.10522 11.2544 2.10522 11.4101C2.10522 11.5659 2.23147 11.6921 2.38718 11.6921H12.6127C12.7685 11.6921 12.8947 11.5659 12.8947 11.4101C12.8947 11.2544 12.7685 11.1282 12.6127 11.1282Z" fill="white"/>
</svg>
