<svg width="18" height="16" viewBox="0 0 18 16" fill="none" xmlns="http://www.w3.org/2000/svg">
<path d="M17 8.41176V5.11765C17 4.68082 16.8127 4.26188 16.4793 3.953C16.1459 3.64412 15.6937 3.47059 15.2222 3.47059H9.95111C9.6585 3.47063 9.37041 3.40375 9.11239 3.2759C8.85437 3.14804 8.6344 2.96316 8.472 2.73765L7.75022 1.73294C7.58782 1.50743 7.36786 1.32255 7.10984 1.19469C6.85182 1.06683 6.56372 0.999959 6.27111 1H2.77778C2.30628 1 1.8541 1.17353 1.5207 1.48241C1.1873 1.7913 1 2.21023 1 2.64706V12.5294C1 12.9662 1.1873 13.3852 1.5207 13.6941C1.8541 14.0029 2.30628 14.1765 2.77778 14.1765H9M14.3333 10.0588V12.5294M14.3333 12.5294V15M14.3333 12.5294H11.6667M14.3333 12.5294H17" stroke="#658AFF" stroke-width="1.3" stroke-linecap="round" stroke-linejoin="round"/>
</svg>
