<svg width="21" height="19" viewBox="0 0 21 19" fill="none" xmlns="http://www.w3.org/2000/svg">
<path d="M18.5 15.8571V2.64286C18.5 1.18347 17.3171 0 15.8571 0H2.64286C1.18294 0 0 1.18347 0 2.64286V15.8571C0 17.3165 1.18294 18.5 2.64286 18.5H15.8571C17.3171 18.5 18.5 17.3165 18.5 15.8571ZM3.83214 3.30357H9.13794C9.5756 3.30357 9.9308 3.65824 9.9308 4.09643C9.9308 4.53461 9.5756 4.88929 9.13794 4.88929H3.83214C3.39449 4.88929 3.03929 4.53461 3.03929 4.09643C3.03929 3.65824 3.39449 3.30357 3.83214 3.30357ZM3.83214 6.73929H9.11786C9.55551 6.73929 9.91071 7.09396 9.91071 7.53214C9.91071 7.97033 9.55551 8.325 9.11786 8.325H3.83214C3.39449 8.325 3.03929 7.97033 3.03929 7.53214C3.03929 7.09396 3.39449 6.73929 3.83214 6.73929ZM14.6679 15.1964H3.83214C3.39449 15.1964 3.03929 14.8418 3.03929 14.4036C3.03929 13.9654 3.39449 13.6107 3.83214 13.6107H14.6679C15.1055 13.6107 15.4607 13.9654 15.4607 14.4036C15.4607 14.8418 15.1055 15.1964 14.6679 15.1964ZM14.6679 11.7607H3.83214C3.39449 11.7607 3.03929 11.406 3.03929 10.9679C3.03929 10.5297 3.39449 10.175 3.83214 10.175H14.6679C15.1055 10.175 15.4607 10.5297 15.4607 10.9679C15.4607 11.406 15.1055 11.7607 14.6679 11.7607ZM20.35 4.47383V16.1621C20.35 17.4529 19.304 18.5 18.0121 18.5H16.6944C18.1543 18.5 19.3373 17.3165 19.3373 15.8571V2.64286C19.3373 2.6085 19.3277 2.57626 19.3267 2.5419C19.9441 2.96264 20.35 3.6704 20.35 4.47383Z" fill="#5C6A9B"/>
</svg>
