<svg width="16" height="20" viewBox="0 0 16 20" fill="none" xmlns="http://www.w3.org/2000/svg">
<path d="M11.4032 8.71006C11.4546 8.63799 11.4746 8.59178 11.4825 8.56695C11.4401 8.54454 11.3839 8.49902 11.0774 8.49902C10.9032 8.49902 10.6846 8.50661 10.4529 8.53626C10.7339 8.75247 10.8025 8.86178 10.9863 8.86178C11.0667 8.86213 11.297 8.85868 11.4032 8.71006Z" fill="#5C6A9B"/>
<path d="M4.84002 11.2529C4.8914 11.2367 5.1914 11.0998 5.75036 10.0681C5.01312 10.4823 4.71312 10.8226 4.69174 11.0143C4.68795 11.046 4.67864 11.1295 4.84002 11.2529Z" fill="#5C6A9B"/>
<path d="M15.5172 13.4483V4.82C15.5172 4.55586 15.4855 4.36034 15.3276 4.20207L11.3148 0.189655C11.1945 0.0693103 11.0276 0 10.8569 0H0.84931C0.440345 0 0 0.315862 0 1.00897V13.4483H15.5172ZM10.6897 1.16931C10.6897 1.01138 10.8803 0.932414 10.9921 1.04414L14.4731 4.52517C14.5848 4.6369 14.5059 4.82759 14.3479 4.82759H10.6897V1.16931ZM4.11448 10.95C4.17724 10.3886 4.87138 9.80103 6.17828 9.20241C6.6969 8.06586 7.19034 6.66552 7.48448 5.49552C7.14035 4.74655 6.80586 3.77483 7.04966 3.20483C7.13517 3.00517 7.24172 2.85207 7.44069 2.78586C7.51931 2.75966 7.71793 2.72655 7.79103 2.72655C7.96483 2.72655 8.11759 2.95035 8.22586 3.08828C8.32759 3.21793 8.55828 3.49276 8.09724 5.43379C8.56207 6.39379 9.22069 7.37172 9.85172 8.04138C10.3038 7.95966 10.6928 7.91793 11.0097 7.91793C11.5497 7.91793 11.8769 8.04379 12.0103 8.3031C12.1207 8.51759 12.0755 8.76828 11.8759 9.04793C11.6838 9.31655 11.419 9.45862 11.1103 9.45862C10.691 9.45862 10.2028 9.19379 9.65828 8.67069C8.68 8.87517 7.53724 9.24 6.61414 9.64379C6.32586 10.2555 6.04966 10.7483 5.79241 11.1097C5.43966 11.6055 5.13483 11.8362 4.8331 11.8362C4.7131 11.8362 4.59793 11.7972 4.49966 11.7238C4.14 11.4538 4.09172 11.1541 4.11448 10.95Z" fill="#5C6A9B"/>
<path d="M5.07642 15.8129C5.02745 15.7453 4.95918 15.6887 4.87125 15.6432C4.78332 15.5977 4.66677 15.575 4.52228 15.575H4.09814V16.9515H4.61677C4.68573 16.9515 4.75401 16.9398 4.82194 16.916C4.88952 16.8925 4.95159 16.8539 5.00814 16.8005C5.0647 16.747 5.11021 16.6725 5.1447 16.5767C5.17918 16.4808 5.19642 16.3622 5.19642 16.2208C5.19642 16.1643 5.18849 16.0987 5.17297 16.0253C5.15711 15.9515 5.12504 15.8808 5.07642 15.8129Z" fill="#5C6A9B"/>
<path d="M7.8769 6.26685C7.63001 7.11995 7.30483 8.04098 6.95483 8.87512C7.67552 8.59547 8.45897 8.35133 9.19483 8.17857C8.72932 7.63788 8.26414 6.96271 7.8769 6.26685Z" fill="#5C6A9B"/>
<path d="M0 14.1379V19.3104C0 19.6583 0.42069 20 0.84931 20H14.6679C15.0966 20 15.5172 19.6583 15.5172 19.3104V14.1379H0ZM5.65379 16.6997C5.59414 16.8428 5.51069 16.9631 5.40379 17.0604C5.2969 17.1576 5.16793 17.2331 5.01724 17.2866C4.86655 17.34 4.69966 17.3666 4.51759 17.3666H4.09793V18.6207H3.53207V15.1462H4.53138C4.67897 15.1462 4.82517 15.1697 4.96966 15.2169C5.11414 15.2641 5.24379 15.3348 5.35862 15.429C5.47345 15.5231 5.56621 15.6372 5.6369 15.7707C5.70759 15.9041 5.7431 16.0541 5.7431 16.221C5.74345 16.3972 5.71345 16.5566 5.65379 16.6997ZM9.12138 17.52C9.06 17.7228 8.98241 17.8924 8.88793 18.0293C8.79345 18.1662 8.68759 18.2738 8.56966 18.3524C8.45172 18.431 8.33793 18.4897 8.22793 18.5293C8.11793 18.5686 8.01724 18.5938 7.92621 18.6048C7.83517 18.6152 7.76759 18.6207 7.72345 18.6207H6.40828V15.1462H7.45483C7.74724 15.1462 8.00414 15.1928 8.22552 15.2852C8.4469 15.3776 8.63103 15.5014 8.77724 15.6552C8.92345 15.809 9.03241 15.9845 9.10483 16.1807C9.1769 16.3769 9.2131 16.579 9.2131 16.7866C9.21345 17.0728 9.18276 17.3172 9.12138 17.52ZM12.2069 15.5752H10.6086V16.669H12.0607V17.0555H10.6086V18.6207H10.0334V15.1462H12.2069V15.5752Z" fill="#5C6A9B"/>
<path d="M8.36722 15.9594C8.26826 15.8446 8.13378 15.7518 7.96412 15.6812C7.79447 15.6105 7.57447 15.575 7.30412 15.575H6.97412V18.2056H7.53516C7.9186 18.2056 8.19516 18.0832 8.36481 17.8381C8.53447 17.5929 8.61929 17.2377 8.61929 16.7725C8.61929 16.6281 8.60205 16.485 8.56757 16.3436C8.53274 16.2022 8.46619 16.0743 8.36722 15.9594Z" fill="#5C6A9B"/>
<path d="M7.66746 3.34892C7.63366 3.3603 7.20884 3.95478 7.70056 4.45789C8.0278 3.72858 7.68228 3.34409 7.66746 3.34892Z" fill="#5C6A9B"/>
</svg>
