<svg width="21" height="21" viewBox="0 0 21 21" fill="none" xmlns="http://www.w3.org/2000/svg">
<path d="M19.9554 7.10186e-05H13.8125C13.5188 7.10186e-05 13.2799 0.238977 13.2799 0.53271V1.95308C13.2799 2.24674 13.5188 2.48572 13.8125 2.48572H18.0024V18.0024H2.48565V2.48565H6.67546C6.9692 2.48565 7.2081 2.24674 7.2081 1.95301V0.532639C7.2081 0.238977 6.9692 0 6.67546 0H0.532639C0.238977 0 0 0.238977 0 0.532639V19.9554C0 20.249 0.238977 20.488 0.532639 20.488H19.9554C20.249 20.488 20.488 20.249 20.488 19.9554V0.53271C20.488 0.238977 20.2491 7.10186e-05 19.9554 7.10186e-05Z" fill="#5C6A9B"/>
<path d="M6.21332 6.89115C6.07107 6.89115 5.93728 6.94654 5.83671 7.04718L4.8323 8.05152C4.73173 8.15208 4.67627 8.28588 4.67627 8.42813C4.67627 8.57038 4.73166 8.70411 4.8323 8.80482L9.86737 13.84C9.96801 13.9405 10.1017 13.9959 10.244 13.9959C10.3862 13.9959 10.52 13.9405 10.6206 13.84L15.6557 8.80489C15.7562 8.70425 15.8117 8.57053 15.8117 8.42828C15.8117 8.28595 15.7563 8.15223 15.6557 8.05159L14.6513 7.04725C14.5507 6.94669 14.4169 6.89129 14.2746 6.89129C14.1324 6.89129 13.9986 6.94669 13.898 7.04732L11.4868 9.45854V1.80608C11.4868 1.51234 11.2479 1.27344 10.9542 1.27344H9.5338C9.24007 1.27344 9.00116 1.51234 9.00116 1.80608V9.4584L6.59001 7.04718C6.48937 6.94661 6.35565 6.89115 6.21332 6.89115Z" fill="#5C6A9B"/>
</svg>
