<svg width="20" height="21" viewBox="0 0 20 21" fill="none" xmlns="http://www.w3.org/2000/svg">
<path d="M19.0037 2.61425V2.29725C19.0037 1.02923 17.9744 0 16.7064 0C15.4384 0 14.4092 1.02923 14.4092 2.29725V2.61425H19.0037Z" fill="#5C6A9B"/>
<path d="M13.6476 18.094H1.03747C0.465214 18.094 0 18.5592 0 19.1315C0 19.7037 0.465214 20.1689 1.03747 20.1689H15.0721L13.6476 18.094Z" fill="#5C6A9B"/>
<path d="M13.0672 5.65259H1.03747C0.465214 5.65259 0 6.1178 0 6.69006C0 7.26231 0.465214 7.72752 1.03747 7.72752H13.0672V5.65259Z" fill="#5C6A9B"/>
<path d="M13.0672 9.79834H1.03747C0.465214 9.79834 0 10.2636 0 10.8358C0 11.4081 0.465214 11.8733 1.03747 11.8733H13.0672V9.79834Z" fill="#5C6A9B"/>
<path d="M13.0672 13.9441H1.03747C0.465214 13.9441 0 14.4093 0 14.9816C0 15.5538 0.465214 16.019 1.03747 16.019H13.0672V13.9441Z" fill="#5C6A9B"/>
<path d="M14.4135 3.96069V16.8426L16.5049 19.8644C16.6037 20.0085 16.8177 20.0085 16.9207 19.8644L19.0121 16.8426V3.96069H14.4135Z" fill="#5C6A9B"/>
</svg>
