<svg width="17" height="17" viewBox="0 0 17 17" fill="none" xmlns="http://www.w3.org/2000/svg">
<path d="M16.9071 16.4566L11.9541 11.4968C13.2174 10.2768 14.0001 8.595 14.0001 6.74017C14.0001 3.02345 10.8601 0 7.00004 0C3.14002 0 0 3.02345 0 6.74017C0 10.4569 3.14002 13.4803 7.00004 13.4803C8.69439 13.4803 10.2494 12.8972 11.4614 11.9295L16.4264 16.9015C16.4918 16.9673 16.5791 17 16.6668 17C16.7501 17 16.8331 16.9701 16.8978 16.9105C17.0304 16.7875 17.0344 16.5844 16.9071 16.4566ZM7.00004 12.8384C3.50769 12.8384 0.666671 10.1029 0.666671 6.74017C0.666671 3.37747 3.50769 0.641921 7.00004 0.641921C10.4924 0.641921 13.3334 3.37747 13.3334 6.74017C13.3334 10.1029 10.4921 12.8384 7.00004 12.8384Z" fill="#9C9C9C"/>
</svg>
