<svg width="16" height="19" viewBox="0 0 16 19" fill="none" xmlns="http://www.w3.org/2000/svg">
<path d="M15.1733 14.4438H11.0339V18.6331L15.1733 14.4438Z" fill="#5C6A9B"/>
<path d="M15.1732 1.16455C15.1732 0.520847 14.6524 0 14.0087 0H1.16455C0.521458 0 0 0.520847 0 1.16455V17.4685C0 18.1121 0.521427 18.633 1.16455 18.633H9.84929V13.7129C9.84929 13.3911 10.1097 13.1307 10.4316 13.1307H15.1732V1.16455ZM1.75075 2.91792H7.5866V4.23098H1.75075V2.91792ZM1.75075 6.56532H7.5866V7.87838H1.75075V6.56532ZM7.5866 15.1732H1.75075V13.8601H7.5866V15.1732ZM13.1307 11.5258H1.75075V10.2127H13.1307V11.5258ZM13.1307 7.87841H9.48327V2.91792H13.1307V7.87841Z" fill="#5C6A9B"/>
</svg>
