<svg width="21" height="22" viewBox="0 0 21 22" fill="none" xmlns="http://www.w3.org/2000/svg">
<path d="M0.227739 1.81329C0.0879216 1.88979 0 2.03752 0 2.19844V14.5094C0 14.6501 0.067724 14.782 0.181161 14.8647L7.78492 20.3949C7.82626 20.4248 7.87198 20.4459 7.91332 20.4741V6.43344L0.675344 1.82648C0.539896 1.74119 0.368422 1.73678 0.227739 1.81329ZM1.82113 8.12794C1.94689 7.91954 2.21597 7.85272 2.42438 7.97757L6.82116 10.6156C7.02957 10.7405 7.09639 11.0105 6.97153 11.2189C6.88975 11.3561 6.74379 11.4317 6.59515 11.4317C6.51865 11.4317 6.44037 11.4115 6.36915 11.3693L1.97236 8.73119C1.76396 8.6063 1.69627 8.33548 1.82113 8.12794ZM1.82113 10.766C1.94689 10.5585 2.21597 10.4899 2.42438 10.6156L6.82116 13.2537C7.02957 13.3786 7.09639 13.6485 6.97153 13.8569C6.88975 13.9941 6.74379 14.0698 6.59515 14.0698C6.51865 14.0698 6.44037 14.0495 6.36915 14.0073L1.97236 11.3693C1.76396 11.2444 1.69627 10.9735 1.82113 10.766Z" fill="#5C6A9B"/>
<path d="M8.79346 6.85815V20.9199C9.21377 21.0694 9.6561 21.152 10.1125 21.152C10.5689 21.152 11.0112 21.0685 11.4315 20.9199V6.85815C10.5821 7.15184 9.64291 7.15184 8.79346 6.85815Z" fill="#5C6A9B"/>
<path d="M19.9972 1.8131C19.8556 1.7366 19.6851 1.74101 19.5496 1.82806L12.3108 6.43412V20.4748C12.353 20.4466 12.3987 20.4255 12.4392 20.3956L20.043 14.8654C20.1573 14.7818 20.225 14.6499 20.225 14.5092V2.19826C20.225 2.03734 20.1371 1.88961 19.9972 1.8131Z" fill="#5C6A9B"/>
<path d="M10.1124 0C8.41528 0 7.03467 1.38057 7.03467 3.07775C7.03467 4.77489 8.41524 6.1555 10.1124 6.1555C11.8096 6.1555 13.1902 4.77493 13.1902 3.07775C13.1902 1.38057 11.8096 0 10.1124 0Z" fill="#5C6A9B"/>
</svg>
