<svg width="13" height="13" viewBox="0 0 13 13" fill="none" xmlns="http://www.w3.org/2000/svg">
<path d="M6.47154 6.1091C8.15852 6.1091 9.52609 4.74153 9.52609 3.05455C9.52609 1.36757 8.15852 0 6.47154 0C4.78456 0 3.41699 1.36757 3.41699 3.05455C3.41699 4.74153 4.78456 6.1091 6.47154 6.1091Z" fill="#001454"/>
<path d="M10.1054 6.58188C10.0572 6.54916 9.96036 6.48622 9.96036 6.48622C9.17955 7.57024 7.9066 8.27732 6.47152 8.27732C5.03631 8.27732 3.76321 7.57008 2.98244 6.48584C2.98244 6.48584 2.901 6.53916 2.86055 6.56641C1.13498 7.7287 0 9.70062 0 11.9376V12.6162H12.943V11.9376C12.943 9.71054 11.8181 7.74622 10.1054 6.58188Z" fill="#001454"/>
</svg>
