<svg width="20" height="15" viewBox="0 0 20 15" fill="none" xmlns="http://www.w3.org/2000/svg">
<path d="M15.9656 4.57886H11.3635V8.00589H15.9656V4.57886Z" fill="#5C6A9B"/>
<path d="M2.9202 14.8931H18.7544C19.1178 14.8931 19.4124 14.5984 19.4124 14.235V0.65806C19.4124 0.29465 19.1178 0 18.7544 0H2.9202C2.55679 0 2.26221 0.29465 2.26221 0.65806V14.235C2.26214 14.5984 2.55679 14.8931 2.9202 14.8931ZM10.3108 4.05241C10.3108 3.76169 10.5465 3.52593 10.8372 3.52593H16.4923C16.7831 3.52593 17.0188 3.76162 17.0188 4.05241V8.53229C17.0188 8.82296 16.7831 9.05871 16.4923 9.05871H10.8372C10.5466 9.05871 10.3108 8.82302 10.3108 8.53229V4.05241ZM5.18217 3.52599H8.57528C8.86594 3.52599 9.1017 3.76169 9.1017 4.05248C9.1017 4.34321 8.86594 4.5789 8.57528 4.5789H5.18217C4.89144 4.5789 4.65568 4.34327 4.65568 4.05248C4.65568 3.76169 4.89144 3.52599 5.18217 3.52599ZM5.18217 5.78881H8.57528C8.86594 5.78881 9.1017 6.0245 9.1017 6.3153C9.1017 6.60596 8.86594 6.84172 8.57528 6.84172H5.18217C4.89144 6.84172 4.65568 6.60602 4.65568 6.3153C4.65568 6.0245 4.89144 5.78881 5.18217 5.78881ZM5.18217 8.05136H8.57528C8.86594 8.05136 9.1017 8.28706 9.1017 8.57778C9.1017 8.86851 8.86594 9.10427 8.57528 9.10427H5.18217C4.89144 9.10427 4.65568 8.86858 4.65568 8.57778C4.65568 8.28706 4.89144 8.05136 5.18217 8.05136ZM5.18217 11.4457H16.4923C16.783 11.4457 17.0187 11.6815 17.0187 11.9721C17.0187 12.2629 16.7831 12.4986 16.4923 12.4986H5.18217C4.89144 12.4986 4.65568 12.2629 4.65568 11.9721C4.65568 11.6814 4.89144 11.4457 5.18217 11.4457Z" fill="#5C6A9B"/>
<path d="M1.20925 14.2346V2.26245H0.657994C0.29465 2.26245 0 2.5571 0 2.92058V14.2347C0 14.5981 0.29465 14.8927 0.657994 14.8927H1.34096C1.25625 14.69 1.20925 14.4677 1.20925 14.2346Z" fill="#5C6A9B"/>
</svg>
